# xmcd
#
# Track frame offsets:
#	150
#	14377
#	29597
#	44487
#	59162
#	73312
#	87300
#	102097
#	117147
#	131517
#	145514
#
# Disc length: 2140 seconds
#
# Revision: 0
# Processed by: cddbd v1.5.2PL0 Copyright (c) Steve Scherf et al.
# Submitted via: EasyCDDAExtractor 16.0.6.1
#
DISCID=9e085a0b
DTITLE=Συλλογικός δίσκος - Ιστορία ρεμπέτικου τρ.-Πρόσφυγες και ρεμπέτικο
DYEAR=2007
DGENRE=Ρεμπέτικη
TTITLE0=Τούντας Παναγιώτης - Το κουκλί της Κοκκινιάς [Κ. Ρούκουνας]
TTITLE1=Σέμσης Δημήτρης - Η Μαρίτσα [Ρ. Αμπατζή]
TTITLE2=Ασίκης Γρηγόρης - Βυρωνιώτισσα [Γρ. Ασίκης]
TTITLE3=Διαμαντίδης Αντώνης ή Νταλγκάς - Μιά Σμυρνιά στην Κοκκινιά [Γρ. Ασίκης
TTITLE3=]
TTITLE4=Πετροπουλέας Γιώργος-Καρίπης Κώστας - Μόρτισσα Σμυρνιά [Κ. Ρούκουνας]
TTITLE5=Τούντας Παναγιώτης - Πριγκιπιώτισσα [Μ. Φραντζεσκοπούλου]
TTITLE6=Γκόγκος Δημήτρης ή Μπαγιαντέρας - Όμορφη Σμυρνιά [Δ. Γκόγκος]
TTITLE7=Τούντας Παναγιώτης - Στου Συγγρού [Ρ. Εσκενάζυ]
TTITLE8=Σέμσης Δημήτρης - Σμυρνιά καμωματού [Α. Νταλγκάς]
TTITLE9=Τούντας Παναγιώτης - Τα μάτια της Σμυρνιάς [Δ. Αραπάκης]
TTITLE10=Σέμσης Δημήτρης - Αηδίνικο [Δ. Σέμσης]
EXTD=
EXTT0=
EXTT1=
EXTT2=
EXTT3=
EXTT4=
EXTT5=
EXTT6=
EXTT7=
EXTT8=
EXTT9=
EXTT10=
PLAYORDER=
